<svg width="19" height="18" viewBox="0 0 19 18" fill="none" xmlns="http://www.w3.org/2000/svg">
<path d="M4 18C3.03333 18 2.20833 17.6583 1.525 16.975C0.841667 16.2917 0.5 15.4667 0.5 14.5C0.5 13.5333 0.841667 12.7083 1.525 12.025C2.20833 11.3417 3.03333 11 4 11H5.5V7H4C3.03333 7 2.20833 6.65833 1.525 5.975C0.841667 5.29167 0.5 4.46667 0.5 3.5C0.5 2.53333 0.841667 1.70833 1.525 1.025C2.20833 0.341667 3.03333 0 4 0C4.96667 0 5.79167 0.341667 6.475 1.025C7.15833 1.70833 7.5 2.53333 7.5 3.5V5H11.5V3.5C11.5 2.53333 11.8417 1.70833 12.525 1.025C13.2083 0.341667 14.0333 0 15 0C15.9667 0 16.7917 0.341667 17.475 1.025C18.1583 1.70833 18.5 2.53333 18.5 3.5C18.5 4.46667 18.1583 5.29167 17.475 5.975C16.7917 6.65833 15.9667 7 15 7H13.5V11H15C15.9667 11 16.7917 11.3417 17.475 12.025C18.1583 12.7083 18.5 13.5333 18.5 14.5C18.5 15.4667 18.1583 16.2917 17.475 16.975C16.7917 17.6583 15.9667 18 15 18C14.0333 18 13.2083 17.6583 12.525 16.975C11.8417 16.2917 11.5 15.4667 11.5 14.5V13H7.5V14.5C7.5 15.4667 7.15833 16.2917 6.475 16.975C5.79167 17.6583 4.96667 18 4 18ZM4 16C4.41667 16 4.77083 15.8542 5.0625 15.5625C5.35417 15.2708 5.5 14.9167 5.5 14.5V13H4C3.58333 13 3.22917 13.1458 2.9375 13.4375C2.64583 13.7292 2.5 14.0833 2.5 14.5C2.5 14.9167 2.64583 15.2708 2.9375 15.5625C3.22917 15.8542 3.58333 16 4 16ZM15 16C15.4167 16 15.7708 15.8542 16.0625 15.5625C16.3542 15.2708 16.5 14.9167 16.5 14.5C16.5 14.0833 16.3542 13.7292 16.0625 13.4375C15.7708 13.1458 15.4167 13 15 13H13.5V14.5C13.5 14.9167 13.6458 15.2708 13.9375 15.5625C14.2292 15.8542 14.5833 16 15 16ZM7.5 11H11.5V7H7.5V11ZM4 5H5.5V3.5C5.5 3.08333 5.35417 2.72917 5.0625 2.4375C4.77083 2.14583 4.41667 2 4 2C3.58333 2 3.22917 2.14583 2.9375 2.4375C2.64583 2.72917 2.5 3.08333 2.5 3.5C2.5 3.91667 2.64583 4.27083 2.9375 4.5625C3.22917 4.85417 3.58333 5 4 5ZM13.5 5H15C15.4167 5 15.7708 4.85417 16.0625 4.5625C16.3542 4.27083 16.5 3.91667 16.5 3.5C16.5 3.08333 16.3542 2.72917 16.0625 2.4375C15.7708 2.14583 15.4167 2 15 2C14.5833 2 14.2292 2.14583 13.9375 2.4375C13.6458 2.72917 13.5 3.08333 13.5 3.5V5Z" fill="black" style="fill:black;fill-opacity:1;"/>
</svg>
