<svg width="20" height="20" viewBox="0 0 20 20" fill="none" xmlns="http://www.w3.org/2000/svg">
<path d="M10 20L0 15V5L10 0L20 5V15L10 20ZM6.77778 7.25C7.2037 6.85 7.69444 6.54167 8.25 6.325C8.80556 6.10833 9.38889 6 10 6C10.6111 6 11.1944 6.10833 11.75 6.325C12.3056 6.54167 12.7963 6.85 13.2222 7.25L16.5556 5.575L10 2.3L3.44444 5.575L6.77778 7.25ZM8.88889 17.15V13.875C7.88889 13.6417 7.08333 13.1667 6.47222 12.45C5.86111 11.7333 5.55556 10.9167 5.55556 10C5.55556 9.81667 5.56481 9.64583 5.58333 9.4875C5.60185 9.32917 5.63889 9.16667 5.69444 9L2.22222 7.25V13.825L8.88889 17.15ZM10 12C10.6111 12 11.1343 11.8042 11.5694 11.4125C12.0046 11.0208 12.2222 10.55 12.2222 10C12.2222 9.45 12.0046 8.97917 11.5694 8.5875C11.1343 8.19583 10.6111 8 10 8C9.38889 8 8.86574 8.19583 8.43056 8.5875C7.99537 8.97917 7.77778 9.45 7.77778 10C7.77778 10.55 7.99537 11.0208 8.43056 11.4125C8.86574 11.8042 9.38889 12 10 12ZM11.1111 17.15L17.7778 13.825V7.25L14.3056 9C14.3611 9.16667 14.3981 9.32917 14.4167 9.4875C14.4352 9.64583 14.4444 9.81667 14.4444 10C14.4444 10.9167 14.1389 11.7333 13.5278 12.45C12.9167 13.1667 12.1111 13.6417 11.1111 13.875V17.15Z" fill="black" style="fill:black;fill-opacity:1;"/>
</svg>
